# xmcd
#
# Track frame offsets: 
#        150
#        16842
#        31297
#        52790
#        69541
#        89848
#        109044
#        125944
#        143724
#        158658
#        178187
#        200995
#
# Disc length: 2980 seconds
#
# Revision: 0
# Processed by: cddbd v1.5.2PL0 Copyright (c) Steve Scherf et al.
# Submitted via: ExactAudioCopyFreeDBPlugin 1.0
#
DISCID=ab0ba20c
DTITLE=Various Artist - 今日までそして明日からも、吉田拓郎　tribute to TAKURO YOSHIDA
DYEAR=2017
DGENRE=Folk
TTITLE0=奥田民生 - 今日までそして明日から
TTITLE1=chay - 結婚しようよ
TTITLE2=Mrs. GREEN APPLE - 流星
TTITLE3=寺岡呼人feat.竹原ピストル - 落陽
TTITLE4=鬼束ちひろ - 夏休み
TTITLE5=一青 窈 - メランコリー
TTITLE6=井上陽水 - リンゴ
TTITLE7=髙橋真梨子 - 旅の宿
TTITLE8=德永英明 - やさしい悪魔
TTITLE9=織田哲郎 - おきざりにした悲しみは
TTITLE10=THE ALFEE - 人生を語らず
TTITLE11=ポルノグラフィティ - 永遠の嘘をついてくれ
EXTD=
EXTT0=
EXTT1=
EXTT2=
EXTT3=
EXTT4=
EXTT5=
EXTT6=
EXTT7=
EXTT8=
EXTT9=
EXTT10=
EXTT11=
PLAYORDER=
